<svg width="70" height="70" viewBox="0 0 70 70" fill="none" xmlns="http://www.w3.org/2000/svg">
<circle cx="35" cy="35" r="35" fill="#8A44FF"/>
<path d="M17.546 35.0006C17.546 30.4257 18.3129 26.8557 19.8467 24.2906C21.4069 21.699 24.0778 20.4033 27.8594 20.4033C31.6409 20.4033 34.2986 21.699 35.8324 24.2906C37.3926 26.8557 38.1727 30.4257 38.1727 35.0006C38.1727 39.6284 37.3926 43.2513 35.8324 45.8693C34.2986 48.4608 31.6409 49.7566 27.8594 49.7566C24.0778 49.7566 21.4069 48.4608 19.8467 45.8693C18.3129 43.2513 17.546 39.6284 17.546 35.0006ZM33.73 35.0006C33.73 32.8586 33.5846 31.0472 33.2937 29.5663C33.0292 28.0854 32.4739 26.8822 31.6277 25.9566C30.7815 25.0046 29.5254 24.5286 27.8594 24.5286C26.1933 24.5286 24.9372 25.0046 24.091 25.9566C23.2448 26.8822 22.6762 28.0854 22.3853 29.5663C22.1209 31.0472 21.9887 32.8586 21.9887 35.0006C21.9887 37.2219 22.1209 39.0863 22.3853 40.5936C22.6498 42.1009 23.2051 43.3174 24.0513 44.2429C24.924 45.1685 26.1933 45.6313 27.8594 45.6313C29.5254 45.6313 30.7815 45.1685 31.6277 44.2429C32.5004 43.3174 33.0689 42.1009 33.3334 40.5936C33.5978 39.0863 33.73 37.2219 33.73 35.0006ZM42.3625 25.0443V20.9189H50.6131V49.8359H46.0515V25.0443H42.3625Z" fill="white"/>
</svg>
