<svg width="70" height="70" viewBox="0 0 70 70" fill="none" xmlns="http://www.w3.org/2000/svg">
<circle cx="35" cy="35" r="35" fill="#FB6C34"/>
<path d="M13.38 35.1647C13.38 30.5898 14.1469 27.0198 15.6807 24.4547C17.2409 21.8631 19.9118 20.5673 23.6933 20.5673C27.4749 20.5673 30.1326 21.8631 31.6663 24.4547C33.2266 27.0198 34.0067 30.5898 34.0067 35.1647C34.0067 39.7924 33.2266 43.4153 31.6663 46.0333C30.1326 48.6249 27.4749 49.9207 23.6933 49.9207C19.9118 49.9207 17.2409 48.6249 15.6807 46.0333C14.1469 43.4153 13.38 39.7924 13.38 35.1647ZM29.564 35.1647C29.564 33.0227 29.4186 31.2112 29.1277 29.7303C28.8632 28.2494 28.3079 27.0462 27.4617 26.1207C26.6154 25.1687 25.3593 24.6927 23.6933 24.6927C22.0273 24.6927 20.7712 25.1687 19.925 26.1207C19.0788 27.0462 18.5102 28.2494 18.2193 29.7303C17.9549 31.2112 17.8227 33.0227 17.8227 35.1647C17.8227 37.386 17.9549 39.2503 18.2193 40.7577C18.4838 42.265 19.0391 43.4814 19.8853 44.407C20.758 45.3326 22.0273 45.7953 23.6933 45.7953C25.3593 45.7953 26.6154 45.3326 27.4617 44.407C28.3343 43.4814 28.9029 42.265 29.1673 40.7577C29.4318 39.2503 29.564 37.386 29.564 35.1647ZM41.2905 43.8517C43.8291 41.6568 45.8257 39.8586 47.2801 38.457C48.761 37.029 49.9907 35.5481 50.9691 34.0143C51.9476 32.4806 52.4368 30.9468 52.4368 29.413C52.4368 27.8263 52.0533 26.5834 51.2865 25.6843C50.546 24.7852 49.3692 24.3357 47.7561 24.3357C46.1959 24.3357 44.9795 24.8381 44.1068 25.843C43.2606 26.8214 42.811 28.1437 42.7581 29.8097H38.3948C38.4741 26.795 39.3732 24.4943 41.0921 22.9077C42.8375 21.2946 45.0456 20.488 47.7165 20.488C50.5989 20.488 52.8467 21.2813 54.4598 22.868C56.0993 24.4547 56.9191 26.5702 56.9191 29.2147C56.9191 31.1187 56.4299 32.9566 55.4515 34.7283C54.4995 36.4737 53.3491 38.0471 52.0005 39.4487C50.6782 40.8238 48.9858 42.4237 46.9231 44.2483L45.1381 45.835H57.7125V49.6033H38.4345V46.311L41.2905 43.8517Z" fill="white"/>
</svg>
