<svg width="70" height="70" viewBox="0 0 70 70" fill="none" xmlns="http://www.w3.org/2000/svg">
<circle cx="35" cy="35" r="35" fill="#3DB767"/>
<path d="M13.38 35.1647C13.38 30.5898 14.1469 27.0198 15.6807 24.4547C17.2409 21.8631 19.9118 20.5673 23.6933 20.5673C27.4749 20.5673 30.1326 21.8631 31.6663 24.4547C33.2266 27.0198 34.0067 30.5898 34.0067 35.1647C34.0067 39.7924 33.2266 43.4153 31.6663 46.0333C30.1326 48.6249 27.4749 49.9207 23.6933 49.9207C19.9118 49.9207 17.2409 48.6249 15.6807 46.0333C14.1469 43.4153 13.38 39.7924 13.38 35.1647ZM29.564 35.1647C29.564 33.0227 29.4186 31.2112 29.1277 29.7303C28.8632 28.2494 28.3079 27.0462 27.4617 26.1207C26.6154 25.1687 25.3593 24.6927 23.6933 24.6927C22.0273 24.6927 20.7712 25.1687 19.925 26.1207C19.0788 27.0462 18.5102 28.2494 18.2193 29.7303C17.9549 31.2112 17.8227 33.0227 17.8227 35.1647C17.8227 37.386 17.9549 39.2503 18.2193 40.7577C18.4838 42.265 19.0391 43.4814 19.8853 44.407C20.758 45.3326 22.0273 45.7953 23.6933 45.7953C25.3593 45.7953 26.6154 45.3326 27.4617 44.407C28.3343 43.4814 28.9029 42.265 29.1673 40.7577C29.4318 39.2503 29.564 37.386 29.564 35.1647ZM38.7121 28.223C38.8708 25.7637 39.8096 23.8464 41.5285 22.4713C43.2738 21.0962 45.4951 20.4087 48.1925 20.4087C50.0436 20.4087 51.6435 20.7392 52.9921 21.4003C54.3408 22.0614 55.3589 22.9606 56.0465 24.0977C56.734 25.2348 57.0778 26.5173 57.0778 27.9453C57.0778 29.5849 56.6415 30.9864 55.7688 32.15C54.8961 33.3136 53.8516 34.0937 52.6351 34.4903V34.649C54.1953 35.125 55.4118 35.9977 56.2845 37.267C57.1571 38.5099 57.5935 40.1098 57.5935 42.0667C57.5935 43.6269 57.2365 45.0152 56.5225 46.2317C55.8085 47.4481 54.7507 48.4133 53.3491 49.1273C51.9476 49.8149 50.2683 50.1587 48.3115 50.1587C45.4555 50.1587 43.1019 49.4314 41.2508 47.977C39.4261 46.4961 38.4477 44.3806 38.3155 41.6303H42.6788C42.7846 43.0319 43.3267 44.1822 44.3051 45.0813C45.2836 45.954 46.6058 46.3903 48.2718 46.3903C49.8849 46.3903 51.1278 45.954 52.0005 45.0813C52.8731 44.1822 53.3095 43.0319 53.3095 41.6303C53.3095 39.7792 52.7145 38.4702 51.5245 37.7033C50.3609 36.91 48.5627 36.5133 46.1298 36.5133H45.0985V32.7847H46.1695C48.3115 32.7582 49.9378 32.4012 51.0485 31.7137C52.1856 31.0261 52.7541 29.9419 52.7541 28.461C52.7541 27.1917 52.3442 26.1868 51.5245 25.4463C50.7047 24.6794 49.5411 24.296 48.0338 24.296C46.5529 24.296 45.4026 24.6794 44.5828 25.4463C43.763 26.1868 43.2738 27.1123 43.1151 28.223H38.7121Z" fill="white"/>
</svg>
