<svg width="70" height="70" viewBox="0 0 70 70" fill="none" xmlns="http://www.w3.org/2000/svg">
<circle cx="35" cy="35" r="35" fill="#FDA801"/>
<path d="M11.38 34.1647C11.38 29.5898 12.1469 26.0198 13.6807 23.4547C15.2409 20.8631 17.9118 19.5673 21.6933 19.5673C25.4749 19.5673 28.1326 20.8631 29.6663 23.4547C31.2266 26.0198 32.0067 29.5898 32.0067 34.1647C32.0067 38.7924 31.2266 42.4153 29.6663 45.0333C28.1326 47.6249 25.4749 48.9207 21.6933 48.9207C17.9118 48.9207 15.2409 47.6249 13.6807 45.0333C12.1469 42.4153 11.38 38.7924 11.38 34.1647ZM27.564 34.1647C27.564 32.0227 27.4186 30.2112 27.1277 28.7303C26.8632 27.2494 26.3079 26.0462 25.4617 25.1207C24.6154 24.1687 23.3593 23.6927 21.6933 23.6927C20.0273 23.6927 18.7712 24.1687 17.925 25.1207C17.0788 26.0462 16.5102 27.2494 16.2193 28.7303C15.9549 30.2112 15.8227 32.0227 15.8227 34.1647C15.8227 36.386 15.9549 38.2503 16.2193 39.7577C16.4838 41.265 17.0391 42.4814 17.8853 43.407C18.758 44.3326 20.0273 44.7953 21.6933 44.7953C23.3593 44.7953 24.6154 44.3326 25.4617 43.407C26.3343 42.4814 26.9029 41.265 27.1673 39.7577C27.4318 38.2503 27.564 36.386 27.564 34.1647ZM36.2361 42.9707V39.5593L49.5641 20.44H55.0381V39.0437H58.7271V42.9707H55.0381V49H50.5955V42.9707H36.2361ZM50.7938 25.0413L41.4325 39.0437H50.7938V25.0413Z" fill="white"/>
</svg>
