<svg width="204" height="45" viewBox="0 0 204 45" fill="none" xmlns="http://www.w3.org/2000/svg">
<path d="M55.5526 34V10.7653H59.0583V30.9822H69.5865V34H55.5526ZM78.3846 34.3857C77.2804 34.3857 76.282 34.1815 75.3895 33.7731C74.497 33.3571 73.7899 32.7558 73.268 31.9692C72.7537 31.1826 72.4965 30.2183 72.4965 29.0762C72.4965 28.093 72.6856 27.2837 73.0638 26.6484C73.4419 26.0131 73.9525 25.5101 74.5954 25.1395C75.2383 24.7689 75.9568 24.489 76.7509 24.3C77.5451 24.1109 78.3544 23.9672 79.1788 23.8688C80.2225 23.7478 81.0696 23.6495 81.7201 23.5739C82.3705 23.4907 82.8432 23.3583 83.1382 23.1768C83.4332 22.9953 83.5807 22.7003 83.5807 22.2919V22.2125C83.5807 21.2217 83.3008 20.454 82.7411 19.9094C82.189 19.3648 81.3646 19.0926 80.2679 19.0926C79.1258 19.0926 78.2258 19.3459 77.5678 19.8527C76.9173 20.3519 76.4673 20.9078 76.2177 21.5204L73.0297 20.7943C73.4079 19.7355 73.96 18.8808 74.6861 18.2303C75.4198 17.5723 76.2631 17.0958 77.2161 16.8009C78.1691 16.4983 79.1712 16.3471 80.2225 16.3471C80.9184 16.3471 81.6558 16.4303 82.4348 16.5966C83.2214 16.7555 83.9551 17.0504 84.6358 17.4816C85.324 17.9127 85.8875 18.5291 86.3262 19.3308C86.7649 20.125 86.9842 21.1574 86.9842 22.428V34H83.6714V31.6175H83.5353C83.3159 32.0562 82.9869 32.4873 82.5483 32.9109C82.1096 33.3344 81.5461 33.6861 80.8578 33.966C80.1696 34.2458 79.3452 34.3857 78.3846 34.3857ZM79.1221 31.6629C80.0599 31.6629 80.8616 31.4776 81.5272 31.107C82.2003 30.7364 82.7109 30.2523 83.0588 29.6548C83.4143 29.0498 83.592 28.4031 83.592 27.7148V25.4685C83.471 25.5895 83.2365 25.703 82.8886 25.8089C82.5483 25.9072 82.1588 25.9942 81.7201 26.0698C81.2814 26.1379 80.8541 26.2021 80.4381 26.2627C80.0221 26.3156 79.6742 26.361 79.3943 26.3988C78.7363 26.482 78.135 26.6219 77.5905 26.8186C77.0535 27.0152 76.6224 27.2988 76.2971 27.6694C75.9795 28.0325 75.8206 28.5165 75.8206 29.1216C75.8206 29.9612 76.1307 30.5965 76.7509 31.0276C77.3711 31.4511 78.1615 31.6629 79.1221 31.6629ZM94.8945 23.6533V34H91.5024V16.574H94.7584V19.4102H94.974C95.3748 18.4875 96.0026 17.7463 96.8572 17.1866C97.7195 16.6269 98.8048 16.3471 100.113 16.3471C101.301 16.3471 102.341 16.5966 103.233 17.0958C104.126 17.5874 104.818 18.3211 105.309 19.2968C105.801 20.2725 106.047 21.4788 106.047 22.9159V34H102.655V23.3243C102.655 22.0612 102.326 21.0742 101.668 20.3632C101.01 19.6447 100.106 19.2854 98.9561 19.2854C98.1695 19.2854 97.4699 19.4556 96.8572 19.796C96.2522 20.1363 95.7719 20.6355 95.4164 21.2935C95.0685 21.944 94.8945 22.7306 94.8945 23.6533ZM117.12 34.3404C115.713 34.3404 114.457 33.9811 113.353 33.2626C112.256 32.5365 111.394 31.5041 110.766 30.1654C110.146 28.8191 109.836 27.2043 109.836 25.321C109.836 23.4377 110.15 21.8267 110.778 20.488C111.413 19.1493 112.283 18.1244 113.387 17.4135C114.491 16.7025 115.743 16.3471 117.142 16.3471C118.224 16.3471 119.094 16.5286 119.752 16.8916C120.417 17.2471 120.932 17.6631 121.295 18.1396C121.665 18.6161 121.953 19.0358 122.157 19.3989H122.361V10.7653H125.753V34H122.44V31.2885H122.157C121.953 31.6591 121.658 32.0827 121.272 32.5592C120.894 33.0357 120.372 33.4517 119.706 33.8071C119.041 34.1626 118.178 34.3404 117.12 34.3404ZM117.868 31.4474C118.844 31.4474 119.668 31.1902 120.342 30.6759C121.022 30.154 121.537 29.4317 121.884 28.509C122.24 27.5862 122.418 26.5122 122.418 25.287C122.418 24.0768 122.244 23.018 121.896 22.1104C121.548 21.2027 121.037 20.4956 120.364 19.9888C119.691 19.4821 118.859 19.2287 117.868 19.2287C116.847 19.2287 115.996 19.4934 115.316 20.0229C114.635 20.5523 114.121 21.2746 113.773 22.1898C113.432 23.1049 113.262 24.1373 113.262 25.287C113.262 26.4517 113.436 27.4993 113.784 28.4296C114.132 29.3599 114.646 30.0973 115.327 30.6419C116.015 31.1789 116.862 31.4474 117.868 31.4474ZM143.653 20.8284L140.578 21.3729C140.45 20.9796 140.246 20.6052 139.966 20.2498C139.693 19.8943 139.323 19.6031 138.854 19.3762C138.385 19.1493 137.799 19.0358 137.095 19.0358C136.135 19.0358 135.333 19.2514 134.69 19.6825C134.047 20.1061 133.726 20.6544 133.726 21.3275C133.726 21.9099 133.941 22.3789 134.373 22.7343C134.804 23.0898 135.5 23.381 136.46 23.6079L139.228 24.2432C140.832 24.6138 142.027 25.1849 142.813 25.9563C143.6 26.7278 143.993 27.73 143.993 28.9628C143.993 30.0065 143.691 30.9368 143.086 31.7537C142.488 32.563 141.652 33.1983 140.578 33.6596C139.512 34.121 138.275 34.3517 136.869 34.3517C134.917 34.3517 133.325 33.9357 132.092 33.1037C130.859 32.2642 130.103 31.073 129.823 29.53L133.102 29.0309C133.306 29.8855 133.726 30.5322 134.361 30.9709C134.997 31.402 135.825 31.6175 136.846 31.6175C137.958 31.6175 138.846 31.3868 139.512 30.9255C140.177 30.4566 140.51 29.8855 140.51 29.2124C140.51 28.6678 140.306 28.2102 139.898 27.8396C139.497 27.469 138.88 27.1892 138.048 27.0001L135.099 26.3534C133.473 25.9828 132.27 25.3929 131.491 24.5836C130.719 23.7743 130.334 22.7495 130.334 21.5091C130.334 20.4804 130.621 19.5804 131.196 18.8089C131.771 18.0375 132.565 17.4362 133.578 17.0051C134.592 16.5664 135.753 16.3471 137.061 16.3471C138.945 16.3471 140.427 16.7555 141.509 17.5723C142.59 18.3816 143.305 19.4669 143.653 20.8284ZM151.115 23.6533V34H147.723V10.7653H151.07V19.4102H151.285C151.694 18.4724 152.318 17.7274 153.157 17.1752C153.997 16.6231 155.093 16.3471 156.447 16.3471C157.642 16.3471 158.686 16.5929 159.579 17.0845C160.479 17.5761 161.174 18.3098 161.666 19.2854C162.165 20.2535 162.415 21.4637 162.415 22.9159V34H159.023V23.3243C159.023 22.0461 158.694 21.0553 158.036 20.3519C157.378 19.6409 156.462 19.2854 155.29 19.2854C154.488 19.2854 153.77 19.4556 153.135 19.796C152.507 20.1363 152.011 20.6355 151.648 21.2935C151.293 21.944 151.115 22.7306 151.115 23.6533ZM174.282 34.3517C172.648 34.3517 171.222 33.9773 170.005 33.2285C168.787 32.4798 167.842 31.4322 167.168 30.0859C166.495 28.7397 166.159 27.1665 166.159 25.3664C166.159 23.5587 166.495 21.978 167.168 20.6241C167.842 19.2703 168.787 18.219 170.005 17.4702C171.222 16.7214 172.648 16.3471 174.282 16.3471C175.915 16.3471 177.341 16.7214 178.559 17.4702C179.777 18.219 180.722 19.2703 181.395 20.6241C182.068 21.978 182.405 23.5587 182.405 25.3664C182.405 27.1665 182.068 28.7397 181.395 30.0859C180.722 31.4322 179.777 32.4798 178.559 33.2285C177.341 33.9773 175.915 34.3517 174.282 34.3517ZM174.293 31.5041C175.352 31.5041 176.229 31.2242 176.925 30.6645C177.621 30.1049 178.135 29.3599 178.468 28.4296C178.808 27.4993 178.979 26.4744 178.979 25.355C178.979 24.2432 178.808 23.2222 178.468 22.2919C178.135 21.354 177.621 20.6015 176.925 20.0342C176.229 19.4669 175.352 19.1833 174.293 19.1833C173.227 19.1833 172.342 19.4669 171.638 20.0342C170.943 20.6015 170.424 21.354 170.084 22.2919C169.751 23.2222 169.585 24.2432 169.585 25.355C169.585 26.4744 169.751 27.4993 170.084 28.4296C170.424 29.3599 170.943 30.1049 171.638 30.6645C172.342 31.2242 173.227 31.5041 174.293 31.5041ZM186.191 40.5348V16.574H189.504V19.3989H189.788C189.984 19.0358 190.268 18.6161 190.639 18.1396C191.009 17.6631 191.523 17.2471 192.181 16.8916C192.839 16.5286 193.709 16.3471 194.791 16.3471C196.198 16.3471 197.453 16.7025 198.557 17.4135C199.662 18.1244 200.528 19.1493 201.155 20.488C201.791 21.8267 202.108 23.4377 202.108 25.321C202.108 27.2043 201.795 28.8191 201.167 30.1654C200.539 31.5041 199.677 32.5365 198.58 33.2626C197.483 33.9811 196.232 34.3404 194.825 34.3404C193.766 34.3404 192.9 34.1626 192.227 33.8071C191.561 33.4517 191.039 33.0357 190.661 32.5592C190.283 32.0827 189.992 31.6591 189.788 31.2885H189.583V40.5348H186.191ZM189.515 25.287C189.515 26.5122 189.693 27.5862 190.049 28.509C190.404 29.4317 190.918 30.154 191.592 30.6759C192.265 31.1902 193.089 31.4474 194.065 31.4474C195.078 31.4474 195.925 31.1789 196.606 30.6419C197.287 30.0973 197.801 29.3599 198.149 28.4296C198.504 27.4993 198.682 26.4517 198.682 25.287C198.682 24.1373 198.508 23.1049 198.16 22.1898C197.82 21.2746 197.306 20.5523 196.617 20.0229C195.937 19.4934 195.086 19.2287 194.065 19.2287C193.082 19.2287 192.25 19.4821 191.569 19.9888C190.896 20.4956 190.385 21.2027 190.037 22.1104C189.689 23.018 189.515 24.0768 189.515 25.287Z" fill="white"/>
<path d="M0 4.21875C0 3.84579 0.148158 3.4881 0.411881 3.22438C0.675604 2.96066 1.03329 2.8125 1.40625 2.8125H5.625C5.93868 2.81259 6.24333 2.91755 6.49049 3.11069C6.73766 3.30384 6.91315 3.57408 6.98906 3.87844L8.12813 8.4375H40.7813C40.9877 8.43769 41.1916 8.48335 41.3785 8.57124C41.5653 8.65912 41.7305 8.78708 41.8624 8.94601C41.9942 9.10494 42.0894 9.29096 42.1412 9.49083C42.193 9.69071 42.2002 9.89954 42.1622 10.1025L37.9434 32.6025C37.8831 32.9247 37.7121 33.2158 37.4599 33.4253C37.2078 33.6349 36.8904 33.7497 36.5625 33.75H11.25C10.9222 33.7497 10.6047 33.6349 10.3526 33.4253C10.1004 33.2158 9.92939 32.9247 9.86906 32.6025L5.65313 10.1447L4.52813 5.625H1.40625C1.03329 5.625 0.675604 5.47684 0.411881 5.21312C0.148158 4.9494 0 4.59171 0 4.21875ZM14.0625 33.75C12.5707 33.75 11.1399 34.3426 10.085 35.3975C9.03013 36.4524 8.4375 37.8832 8.4375 39.375C8.4375 40.8668 9.03013 42.2976 10.085 43.3525C11.1399 44.4074 12.5707 45 14.0625 45C15.5543 45 16.9851 44.4074 18.04 43.3525C19.0949 42.2976 19.6875 40.8668 19.6875 39.375C19.6875 37.8832 19.0949 36.4524 18.04 35.3975C16.9851 34.3426 15.5543 33.75 14.0625 33.75ZM33.75 33.75C32.2582 33.75 30.8274 34.3426 29.7725 35.3975C28.7176 36.4524 28.125 37.8832 28.125 39.375C28.125 40.8668 28.7176 42.2976 29.7725 43.3525C30.8274 44.4074 32.2582 45 33.75 45C35.2418 45 36.6726 44.4074 37.7275 43.3525C38.7824 42.2976 39.375 40.8668 39.375 39.375C39.375 37.8832 38.7824 36.4524 37.7275 35.3975C36.6726 34.3426 35.2418 33.75 33.75 33.75ZM14.0625 36.5625C14.8084 36.5625 15.5238 36.8588 16.0512 37.3863C16.5787 37.9137 16.875 38.6291 16.875 39.375C16.875 40.1209 16.5787 40.8363 16.0512 41.3637C15.5238 41.8912 14.8084 42.1875 14.0625 42.1875C13.3166 42.1875 12.6012 41.8912 12.0738 41.3637C11.5463 40.8363 11.25 40.1209 11.25 39.375C11.25 38.6291 11.5463 37.9137 12.0738 37.3863C12.6012 36.8588 13.3166 36.5625 14.0625 36.5625ZM33.75 36.5625C34.4959 36.5625 35.2113 36.8588 35.7387 37.3863C36.2662 37.9137 36.5625 38.6291 36.5625 39.375C36.5625 40.1209 36.2662 40.8363 35.7387 41.3637C35.2113 41.8912 34.4959 42.1875 33.75 42.1875C33.0041 42.1875 32.2887 41.8912 31.7613 41.3637C31.2338 40.8363 30.9375 40.1209 30.9375 39.375C30.9375 38.6291 31.2338 37.9137 31.7613 37.3863C32.2887 36.8588 33.0041 36.5625 33.75 36.5625V36.5625Z" fill="#FDA801"/>
</svg>
